<?xml version="1.0" encoding="UTF-8"?>
<!-- Generated by Pixelmator Pro 3.8 -->
<svg width="325" height="51" viewBox="0 0 325 51" xmlns="http://www.w3.org/2000/svg">
    <g id="Layer1-2">
        <g id="Group">
            <path id="Path" fill="#000000" stroke="none" d="M 250.720001 17.040001 L 250.729996 17.040001 C 250.729996 17.040001 250.729996 17.040001 250.729996 17.040001 L 250.720001 17.040001 Z M 279.049988 24.280001 L 279.049988 24.280001 C 278.649994 22.560001 277.929993 21.120001 276.839996 19.870001 L 276.839996 19.870001 C 275.359985 18.200001 273.470001 17.099998 271.059998 16.490002 C 268.829987 15.900002 265.559998 15.619999 261.049988 15.619999 C 256.140015 15.619999 252.970001 16.189999 250.729996 17.049999 C 249.729996 17.41 248.639999 18.189999 247.839996 18.950001 L 247.839996 17.299999 L 241.479996 17.299999 L 241.479996 50.57 L 247.869995 50.57 L 247.869995 29.440001 C 247.869995 23.92 253.509995 21.740002 259.130005 21.740002 L 261.950012 21.740002 C 267.570007 21.740002 273.269989 23.92 273.269989 29.440001 L 273.269989 50.57 L 279.570007 50.57 L 279.570007 32.420002 C 279.570007 28.300001 279.410004 25.790001 279.059998 24.290001 L 279.059998 24.290001 Z"/>
            <path id="path1" fill="#000000" stroke="none" d="M 171.580002 15.510002 L 177.940002 15.510002 C 178.009995 12.099998 178.130005 8.860001 178.5 7.380001 C 178.800003 5.91 179.460007 4.650002 180.419998 3.689999 C 181.529999 2.360001 183.080002 1.400002 185.070007 0.740002 C 186.990005 0.220001 190.259995 -0.220001 194.539993 -0.290001 L 200.509995 -0.290001 C 200.509995 -0.290001 194.770004 5.299999 194.770004 5.299999 C 194.559998 5.299999 192.539993 5.299999 192.339996 5.299999 C 183.889999 5.299999 184.479996 10.709999 184.479996 15.5 L 199.339996 15.5 L 193.330002 21.620001 L 184.330002 21.620001 L 184.360001 50.5 L 177.940002 50.5 L 177.940002 21.620001 L 171.580002 21.620001 L 171.580002 15.5 L 171.580002 15.5 Z"/>
            <path id="path2" fill="#000000" stroke="none" d="M 165.229996 4.57 L 165.229996 11.09 L 171.589996 11.09 L 171.589996 4.57 L 165.229996 4.57 L 165.229996 4.57 Z"/>
            <path id="path3" fill="#000000" stroke="none" d="M 116.129997 33.110001 C 116.129997 37.060001 115.669998 40.32 114.75 42.75 C 113.82 45.280003 110.660004 51 95.300003 51 C 79.940002 51 76.779999 45.280003 75.849998 42.75 C 74.93 40.32 74.470001 37.060001 74.470001 33.110001 C 74.470001 29.16 74.93 25.900002 75.849998 23.470001 C 76.779999 20.940001 79.940002 15.220001 95.300003 15.220001 C 110.660004 15.220001 113.82 20.93 114.75 23.470001 C 115.669998 25.900002 116.129997 29.150002 116.129997 33.110001 L 116.129997 33.110001 Z M 108.089996 25.460001 L 108.089996 25.460001 C 107.5 24.02 106.470001 23.09 104.889999 22.540001 C 103.25 22.01 100.360001 21.710001 95.300003 21.630001 C 90.25 21.700001 87.360001 22.01 85.709999 22.540001 C 84.129997 23.09 83.099998 24.02 82.510002 25.460001 C 82.040001 26.560001 81.510002 29.240002 81.510002 33.110001 C 81.510002 36.98 82.040001 39.650002 82.510002 40.760002 C 83.099998 42.200001 84.129997 43.130001 85.709999 43.68 C 87.349998 44.209999 90.239998 44.510002 95.300003 44.59 C 100.349998 44.52 103.239998 44.209999 104.889999 43.68 C 106.470001 43.130001 107.5 42.200001 108.089996 40.760002 C 108.559998 39.66 109.089996 36.98 109.089996 33.110001 C 109.089996 29.240002 108.559998 26.570002 108.089996 25.460001 L 108.089996 25.460001 Z"/>
            <path id="path4" fill="#000000" stroke="none" d="M 236.809998 33.110001 C 236.809998 37.060001 236.350006 40.32 235.429993 42.75 C 234.5 45.280003 231.339996 51 215.979996 51 C 200.619995 51 197.460007 45.280003 196.529999 42.75 C 195.610001 40.32 195.149994 37.060001 195.149994 33.110001 C 195.149994 29.16 195.610001 25.900002 196.529999 23.470001 C 197.460007 20.940001 200.619995 15.220001 215.979996 15.220001 C 231.339996 15.220001 234.5 20.93 235.429993 23.470001 C 236.350006 25.900002 236.809998 29.150002 236.809998 33.110001 L 236.809998 33.110001 Z M 228.770004 25.460001 L 228.770004 25.460001 C 228.179993 24.02 227.149994 23.09 225.570007 22.540001 C 223.929993 22.01 221.029999 21.710001 215.979996 21.630001 C 210.929993 21.700001 208.039993 22.01 206.389999 22.540001 C 204.809998 23.09 203.779999 24.02 203.190002 25.460001 C 202.720001 26.560001 202.190002 29.240002 202.190002 33.110001 C 202.190002 36.98 202.720001 39.650002 203.190002 40.760002 C 203.779999 42.200001 204.809998 43.130001 206.389999 43.68 C 208.029999 44.209999 210.919998 44.510002 215.979996 44.59 C 221.029999 44.52 223.919998 44.209999 225.570007 43.68 C 227.149994 43.130001 228.179993 42.200001 228.770004 40.760002 C 229.240005 39.66 229.770004 36.98 229.770004 33.110001 C 229.770004 29.240002 229.240005 26.570002 228.770004 25.460001 L 228.770004 25.460001 Z"/>
            <path id="path5" fill="#000000" stroke="none" d="M 40.709999 16.810001 L 40.709999 16.810001 C 40.709999 16.810001 40.709999 16.810001 40.709999 16.810001 L 40.709999 16.810001 Z M 40.709999 16.810001 L 40.709999 16.810001 C 40.709999 16.810001 40.709999 16.810001 40.709999 16.810001 L 40.709999 16.810001 Z M 69.379997 24.230001 L 69.379997 24.230001 C 68.980003 22.51 68.25 21.070002 67.160004 19.820002 L 67.160004 19.820002 C 65.669998 18.150002 63.759998 17.049999 61.34 16.439999 C 59.099998 15.849998 55.860001 15.57 51.32 15.57 C 46.360001 15.57 43 15.970001 40.73 16.82 L 40.73 16.82 C 40.73 16.82 40.73 16.82 40.73 16.82 C 38.860001 17.5 37.299999 18.75 36.150002 20.470001 C 34.810001 18.669998 33.150002 17.439999 31.08 16.740002 C 28.73 15.950001 24.360001 15.560001 18.85 15.560001 C 14.71 15.560001 11.87 15.849998 10.16 16.459999 L 10.14 16.459999 C 8.85 16.950001 7.62 17.77 6.41 18.939999 L 6.41 17.240002 L -0 17.240002 L -0 50.510002 L 6.35 50.510002 L 6.35 29.380001 C 6.35 23.860001 11.96 21.68 17.629999 21.68 L 20.469999 21.68 C 26.139999 21.68 31.799999 23.860001 31.799999 29.380001 L 31.799999 50.510002 L 38.150002 50.510002 L 38.150002 29.380001 C 38.150002 23.860001 43.689999 21.68 49.360001 21.68 L 52.200001 21.68 C 57.869999 21.68 63.549999 23.860001 63.549999 29.380001 L 63.549999 50.510002 L 69.889999 50.510002 L 69.889999 32.360001 C 69.889999 28.240002 69.730003 25.730001 69.370003 24.230001 L 69.370003 24.230001 Z"/>
            <path id="path6" fill="#000000" stroke="none" d="M 321.940002 35.540001 L 325.190002 35.540001 C 325.230011 34.760002 325.26001 33.950001 325.26001 33.110001 C 325.26001 29.150002 324.799988 25.900002 323.880005 23.470001 C 322.950012 20.940001 319.790009 15.220001 304.429993 15.220001 C 289.070007 15.220001 285.910004 20.93 284.980011 23.470001 C 284.059998 25.900002 283.600006 29.150002 283.600006 33.110001 C 283.600006 37.07 284.059998 40.32 284.980011 42.75 C 285.910004 45.280003 289.070007 51 304.429993 51 C 319.790009 51 322.950012 45.280003 323.880005 42.75 C 323.959991 42.530003 324.040009 42.290001 324.109985 42.060001 L 316.440002 42.060001 C 315.850006 42.780003 315.049988 43.310001 314.01001 43.670002 C 312.359985 44.200001 309.470001 44.5 304.420013 44.580002 C 299.369995 44.510002 296.480011 44.200001 294.829987 43.670002 C 293.25 43.119999 292.220001 42.190002 291.630005 40.75 C 291.269989 39.900002 290.869995 38.110001 290.709991 35.57 L 321.929993 35.57 L 321.929993 35.530003 L 321.929993 35.530003 Z M 294.850006 22.550001 L 294.850006 22.550001 C 296.48999 22.02 299.380005 21.720001 304.440002 21.640001 C 309.48999 21.710001 312.380005 22.02 314.029999 22.550001 C 315.609985 23.1 316.640015 24.030001 317.230011 25.470001 C 317.540009 26.190001 317.869995 27.59 318.070007 29.560001 L 290.820007 29.560001 C 291.01001 27.59 291.350006 26.190001 291.660004 25.470001 C 292.25 24.030001 293.279999 23.1 294.859985 22.550001 L 294.859985 22.550001 Z"/>
            <path id="path7" fill="#000000" stroke="none" d="M 165.229996 15.510002 L 165.229996 50.5 L 171.589996 50.5 L 171.589996 15.510002 L 165.229996 15.510002 L 165.229996 15.510002 Z"/>
            <path id="path8" fill="#000000" stroke="none" d="M 159.369995 23.470001 C 158.440002 20.940001 155.279999 15.220001 139.919998 15.220001 C 134.039993 15.220001 129.960007 16.060001 127.099998 17.240002 L 127.099998 -0.299999 L 120.75 -0.299999 L 120.75 50.59 L 127.099998 50.59 L 127.099998 48.98 C 129.960007 50.16 134.039993 51 139.919998 51 C 155.279999 51 158.440002 45.290001 159.369995 42.75 C 160.289993 40.32 160.75 37.060001 160.75 33.110001 C 160.75 29.16 160.289993 25.900002 159.369995 23.470001 L 159.369995 23.470001 Z M 152.710007 40.760002 L 152.710007 40.760002 C 152.119995 42.200001 151.089996 43.130001 149.509995 43.68 C 147.860001 44.209999 144.970001 44.510002 139.919998 44.59 C 134.869995 44.52 132.880005 44.209999 131.229996 43.68 C 129.649994 43.130001 128.619995 42.200001 128.029999 40.760002 C 127.660004 39.889999 127.25 38.030003 127.089996 35.380001 L 127.089996 30.84 C 127.25 28.190001 127.660004 26.33 128.029999 25.460001 C 128.619995 24.02 129.649994 23.09 131.229996 22.540001 C 132.869995 22.01 134.860001 21.710001 139.919998 21.630001 C 144.970001 21.700001 147.860001 22.01 149.509995 22.540001 C 151.089996 23.09 152.119995 24.02 152.710007 25.460001 C 153.179993 26.560001 153.710007 29.240002 153.710007 33.110001 C 153.710007 36.98 153.179993 39.650002 152.710007 40.760002 L 152.710007 40.760002 Z"/>
        </g>
    </g>
</svg>
