<?xml version="1.0" encoding="UTF-8"?>
<!-- Generated by Pixelmator Pro 3.8 -->
<svg width="505" height="505" viewBox="0 0 505 505" xmlns="http://www.w3.org/2000/svg">
    <path id="Path-copy" fill="#dce77a" stroke="none" d="M 252.078644 120.558258 C 178.825668 120.558258 119.558304 179.825623 119.558304 253.078613 C 119.558304 326.331604 178.825668 385.598938 252.078644 385.598938 C 325.331635 385.598938 384.598999 326.331604 384.598999 253.078613 C 384.598999 179.825623 325.331635 120.558258 252.078644 120.558258 Z M 35.486267 377.840881 C 133.332825 372.510101 130.641251 372.667969 126.894157 469.4599 C 211.546738 414.150726 208.696838 421.222717 251.814774 503.078613 C 297.518707 413.042877 298.521454 420.220398 376.840912 469.67099 C 371.352234 368.763428 375.890869 374.674316 468.45993 378.263123 C 413.150757 293.610504 420.222748 296.460449 502.078644 253.342484 C 412.042908 207.63855 419.220428 206.635803 468.671051 128.316345 C 367.763458 133.805023 373.674377 129.266388 377.263153 36.697327 C 295.88266 89.842682 297.360413 88.417755 252.342529 3.078613 C 208.379745 89.631134 209.013504 88.047882 127.316376 36.486237 C 132.593964 133.488342 132.224533 131.641205 35.697369 127.894135 C 91.006531 212.546692 83.934555 209.696808 2.078667 252.814743 C 89.422813 297.146515 87.20623 295.932251 35.486267 377.840881 Z M 252.078644 93.959198 C 339.845001 93.959198 411.198059 165.312256 411.198059 253.078613 C 411.198059 340.844971 339.845001 412.197998 252.078644 412.197998 C 164.312286 412.197998 92.959244 340.844971 92.959244 253.078613 C 92.959244 165.312256 164.312286 93.959198 252.078644 93.959198 Z"/>
</svg>
